<svg width="1921" height="326" viewBox="0 0 1921 326" xmlns="http://www.w3.org/2000/svg"><title>Slice 1</title><g fill="none" fill-rule="evenodd"><path d="M1450.951 280.917h-35.505l32.335-58.177h-18.387l34.871-62.74 34.871 62.74h-17.118l32.335 58.177h-35.505v44.489h-27.897v-44.489z" fill="#264700"/><path d="M151.805 280.917h-33.928l30.898-58.177h-17.57L164.528 160l33.322 62.74h-16.358l30.898 58.177h-33.928v44.489h-26.657v-44.489z" fill="#192F00"/><path d="M1635.428 280.917h-35.505l32.335-58.177h-18.386l34.87-62.74 34.871 62.74h-17.118l32.335 58.177h-35.505v44.489h-27.897v-44.489z" fill="#192E00"/><path d="M463.44 137.505l-28.788 54.203h22.81l-40.115 75.532h44.049V325h34.61v-57.76h44.049l-40.116-75.532h21.238l-28.789-54.203h15.253L478.701 83l-28.94 54.505h13.68zM356.761 280.917h-33.928l30.899-58.177h-17.57L369.484 160l33.322 62.74h-16.358l30.899 58.177h-33.928v44.489H356.76v-44.489z" fill="#264700"/><path d="M535.169 280.917H501.24l30.899-58.177h-17.57L547.892 160l33.322 62.74h-16.358l30.899 58.177h-33.928v44.489h-26.658v-44.489z" fill="#3E690B"/><path d="M1558.602 153l-27.637 49.724h21.899l-38.511 69.29h42.286V325h33.225v-52.986h42.287l-38.51-69.29h20.387L1586.392 153h14.643l-27.783-50-27.783 50h13.133z" fill="#264700"/><path d="M266.356 153l-26.41 49.724h20.926l-36.8 69.29h40.408V325h31.75v-52.986h40.409l-36.801-69.29h19.483L292.91 153h13.993l-26.549-50-26.549 50h12.55z" fill="#3E690B"/><path d="M1700.39 137.505l-30.126 54.203h23.871l-41.98 75.532h46.096V325h36.219v-57.76h46.096l-41.98-75.532h22.224l-30.126-54.203h15.962L1716.36 83l-30.285 54.505h14.315z" fill="#264700"/><path d="M1812.506 73.198l-40.459 72.795h32.06l-56.38 101.437h61.906V325h48.641v-77.57h61.906l-56.379-101.437h29.848l-40.459-72.795h21.437L1833.954 0l-40.673 73.198h19.225z" fill="#3E690B"/><path d="M61.902 73.198L23.24 145.993h30.635L0 247.43h59.157V325h46.48v-77.57h59.157l-53.875-101.437h28.522l-38.662-72.795h20.484L82.397 0 43.53 73.198h18.372z" fill="#264700"/></g></svg>