<?xml version="1.0" encoding="utf-8"?>
<!-- Generator: Adobe Illustrator 19.0.0, SVG Export Plug-In . SVG Version: 6.00 Build 0)  -->
<svg version="1.1" id="masapolygame1bg" xmlns="http://www.w3.org/2000/svg" xmlns:xlink="http://www.w3.org/1999/xlink" x="0px"
	 y="0px" width="1189.5px" height="1920px" viewBox="345 -710 1189.5 1920" style="enable-background:new 345 -710 1189.5 1920;"
	 xml:space="preserve">
<style type="text/css">
	.st0{fill:#DBCCBA;}
	.st1{fill:#2CBCDD;}
	.st2{fill:#1899C6;}
	.st3{fill:#C7B299;}
	.st4{fill:#29ABE2;}
	.st5{fill:#99CC66;}
	.st6{fill:#39B54A;}
	.st7{opacity:0.5;fill:#808080;enable-background:new    ;}
	.st8{fill:#F15A24;}
	.st9{fill:#8C6239;}
	.st10{fill:#148479;}
	.st11{fill:#00A99D;}
	.st12{fill:#BCA120;}
	.st13{fill:#D9E021;}
	.st14{fill:#009245;}
	.st15{fill:#006837;}
	.st16{fill:#42210B;}
	.st17{fill:#603813;}
	.st18{fill:#754C24;}
</style>
<path id="XMLID_9_" class="st0" d="M1345.5-234.2c-5.8-80.8-71.1-140.6-137.3-177.9c-37.2-20.9-82.8-42-125.6-50.5
	c-66.3-13.3-135.2-19-164.1,19.9c-63,84.5,116,81.4,185.4,106.9c38.4,14.1,174.2,82.8,121,135c-22.9,20-21.7,86.4,32.7,89.7
	C1319.4-107.4,1349.1-183.9,1345.5-234.2C1344.8-244.3,1346.2-224,1345.5-234.2z"/>
<path id="XMLID_68_" class="st0" d="M1140.1-50.6c-16.3-136.2-392,44.4-442.4,85.5c-49.8,40.6-116.1,91-123.1,156.4
	c-6.1,56.9,17.7,111.6,83,101c20.5-3.3,33.8-35.9,38.9-54.9c12.6-46.8,22.5-69.3,65.9-108.5C840,58.7,952.4,32.6,1051.5,12
	c-35.6,7.4,13-3.2,14.8-4.8C1082.9-6.9,1141.7-37.2,1140.1-50.6L1140.1-50.6z"/>
<path id="XMLID_333_" class="st0" d="M1377.6,458.4C1382.8,322,1210,260,1104.8,231.3c-74.3-20.3-151.1-31-227.8-36.2
	c-52.5-3.5-143.7-0.8-172.8-15c-42.2-20.2-101,3.7-83.7,60.2c14.7,47.9,86.5,59,127,62.8c119,11.1,235.4,8.7,350.8,45.9
	c50,16.1,165.5,47,161.3,111.1c-1.8,28.2-31.3,36.3-11.3,71.3c12.4,21.7,35,32.7,60,28.3C1351.6,552,1376.1,497.3,1377.6,458.4
	C1378.1,443.7,1377.2,468,1377.6,458.4z"/>
<path id="XMLID_445_" class="st0" d="M1436.9,605.4c-9.4-124.1-140.9,15.5-162.9,34.7c-36.3,31.7-181.8,136-266.7,183.1
	c-37.8,21-165.2,65.2-90.5,129.9C1002.3,1027,1444.7,708.1,1436.9,605.4C1435.9,592.8,1438,620,1436.9,605.4L1436.9,605.4z"/>
<g id="lake">
	<path id="XMLID_5_" class="st1" d="M958.4,835.2c-94.2-54.8-250.2-58.1-330.2,30.2c-34.5,38.1-43.1,95.4-0.1,129.7
		c34.9,27.9,82.7,6,117.7,29.5c33.6,22.6,41.2,62.3,84.1,81.8c65.7,29.8,141.7,10.8,182.3-18.6
		C1119,1010.5,1043.3,884.6,958.4,835.2C921.9,814,995.7,856.9,958.4,835.2L958.4,835.2z"/>
	<path id="XMLID_14_" class="st2" d="M958.4,835.2c-94.2-54.8-250.2-58.1-330.2,30.2c-16.4,18.1-26.9,40.5-28.9,62.7
		c4.3-7.5,9.5-14.7,15.5-21.3c80-88.2,236-84.9,330.2-30.2c-2.6-1.5-4.6-2.7-6.1-3.6c-0.4-0.2-0.8-0.5-1.2-0.7
		c-1.9-1.1-2.8-1.7-3.1-1.8c-0.1,0-0.1,0,0,0c0.3,0.1,1.4,0.8,3.1,1.8c0.4,0.2,0.8,0.4,1.2,0.7c5.5,3.2,14.5,8.4,16.5,9.6
		c0.6,0.3,0.5,0.3,0,0c-1.1-0.6-4.2-2.4-10.4-6.1c58.5,34,112.6,104.3,105.8,170C1094,971.3,1029.4,876.5,958.4,835.2L958.4,835.2z"
		/>
	<path id="XMLID_12_" class="st3" d="M628.2,865.3c80-88.2,236-84.9,330.2-30.2c-2.6-1.5-4.6-2.7-6.1-3.6c-0.4-0.2-0.8-0.5-1.2-0.7
		c-1.9-1.1-2.8-1.7-3.1-1.8c-0.1,0-0.1,0,0,0c0.3,0.1,1.4,0.8,3.1,1.8c0.4,0.2,0.8,0.4,1.2,0.7c5.5,3.2,14.5,8.4,16.5,9.6
		c0.6,0.3,0.5,0.3,0,0c-1.1-0.6-4.2-2.4-10.4-6.1c48.7,28.3,94.3,81.7,104.3,136.7c-0.9-61.8-51.7-125.1-106.3-156.9
		C862.2,760,706.2,756.7,626.2,845c-22.7,25.1-34.2,58.5-27.1,88.2C599.6,909.4,610.5,884.8,628.2,865.3L628.2,865.3z"/>
</g>
<path id="XMLID_10_" class="st4" d="M820.4,1101l64.4-12.1h0.1L956,954.5l38.3-19.9l-0.3-0.1l0.3-7.5l-323.1-0.2l0.4,7.1h0.5
	l54.5,29.8l30.5,69.4C779.5,1054,790.2,1083,820.4,1101L820.4,1101z"/>
<ellipse id="XMLID_64_" class="st5" cx="1194.1" cy="-84.3" rx="140.3" ry="125.4"/>
<path id="XMLID_67_" class="st6" d="M1194.1,41.1c-77.5,0-140.3-56.1-140.3-125.4c0-21,5.8-40.8,16-58.2c-17.6,20.9-28,47-28,75.2
	c0,69.3,62.8,125.4,140.3,125.4c54,0,100.8-27.3,124.3-67.2C1280.8,21.4,1240.1,41.1,1194.1,41.1z"/>
<path id="XMLID_66_" class="st7" d="M1050.6,22.1l31.8-3.6l32.8-43.5l34-38.2l-17.2-0.6l-22.7,34l-47.1,37.7L1050.6,22.1z"/>
<path id="XMLID_65_" class="st7" d="M1188.4,34.7l43.7-48.1l28-43.5l22,1l-39.1,44l-32,50.6"/>
<path id="XMLID_63_" class="st7" d="M1181.8,30.8l30.6-33.7l31.3-27.3l-21.1-1.3l-22.3,27.1l-39.7,24.7L1055.1,16L1079-9.4l37.6-31
	l-22.3-0.5l-30.8,32.6L993.8,29l14.2,21.3l116.7,6.2l-57.7,47.9l-6,16.8l24-9.6l20.5,4.8l-9.7,18l25.3-13.2l58.9-16.8l3.6-16.8
	l-39.7-3.6l67.3-45.7L1181.8,30.8L1181.8,30.8z"/>
<ellipse id="XMLID_41_" class="st8" cx="600.1" cy="219.8" rx="140.3" ry="109.4"/>
<path id="XMLID_70_" class="st9" d="M600.1,329.2c-77.5,0-140.3-49-140.3-109.4c0-14,3.4-27.4,9.5-39.8
	c-14.9,17.4-23.5,38.2-23.5,60.7c0,60.4,62.8,109.4,140.3,109.4c59.5,0,110.4-28.9,130.8-69.7C691.7,309.8,648.8,329.2,600.1,329.2z
	"/>
<path id="XMLID_100_" class="st7" d="M473,231.6l-12,6.1l-11,32.1l-46.6,7.6l-17.7,16.9l15.2,10.1l-36.8,30.1
	c0,0-15.1,12.5-6.3,24.8c8.3,11.7,21.1,16.1,21.1,16.1s-12.3,28.5,22,45.6c28,14,60.8-4.2,60.8-4.2s16.9,5.1,26.4,7
	c12.7,2.6,26.7-7.1,26.7-7.1l111.9-72.5l0.8-18.6l64.2-67.6l7.6-13.5l-101.2,53.7L473,231.6L473,231.6z"/>
<path id="XMLID_189_" class="st10" d="M742.2-381h267.4v26.9H742.2V-381z"/>
<path id="XMLID_188_" class="st11" d="M1009.8-380.8H742.3L786.5-481h183.9L1009.8-380.8z"/>
<path id="XMLID_86_" class="st7" d="M768.7-401.1l-26.4,20.5l-0.1,26.5L652.6-309l-24-2.1l-11.4,5.6l50.6,84.7l215.5-39.3l11.9-10.3
	l-35-6l114.4-77.5l1-25.7l12.6-21.5H768.7z"/>
<path id="XMLID_442_" class="st12" d="M1150.9,627.3h370.7v26.9h-370.7L1150.9,627.3L1150.9,627.3z"/>
<path id="XMLID_441_" class="st13" d="M1521.8,627.5H1151l61.2-100.2h255L1521.8,627.5z"/>
<path id="XMLID_449_" class="st7" d="M1178.9,582.6l-13.1,21.4l-84.8,46.5l-4.6-3.5l-37.2,36l48.8-13.6l3.9,9.7
	c0,0-36.4,32.3-34.3,30.9c2-1.3,40.3-15.8,40.3-15.8l10.1,25.4c0,0-39.2,36.6-36.6,34.7c2.5-1.9,44.3-15.4,44.3-15.4l10.3,25.7
	l-29.1,25.1l-7.3-7.3l-6.7,67.1l72.9-15.4l-5-5.7l33.7-29.2l24.2-0.2l-12,43.8l38.1-44.7l37.9-1.4c-3.2,13.7-9.2,39.7-8.5,37.8
	c0.6-1.8,21.8-25.1,34.3-38.7l54.9-2l-9.7,9.5l-10.4-2.6l-13.4,52.2l51.5-36.6l-9.5-5.2l120.8-155.5l4.4-17.8l10.7-55.3
	L1178.9,582.6L1178.9,582.6z"/>
<g id="trees">
	<path id="XMLID_528_" class="st7" d="M713.6-398.6c1.9-1.1-5.7-0.8-7.4-0.8c-3.1-0.1-7-0.8-10.1-0.3c-11.4,2.2-24.6,12.6-34.9,18.3
		c-11.6,6.5-23.2,13.1-34.8,19.7c-5.8,3.3-10.7,6.6-16.9,7.7c-5.8,0.9-10.1,0.2-15.7,3.1c1.3-4.5-11.9-3.6-13.5-3.5
		c2.8-1.2,3-2.6,0.2-3.8c8-2.8-6.9-3.5-8.5-3.4c2.8-1.5,10.9-4.1,12.1-7c0.7-1.6-15.5-3-16.7-3c14.8-7.6,31.2-13.9,45.2-22.8
		c-4.6-0.4-11-2.1-15.6-1.2c-9.1,1.8-19.5,9.6-27.7,13.8c-9.2,4.7-18.4,9.5-27.6,14.3c-4.3,2.3-7.5,3.9-11.9,4.6
		c-4.6,0.7-7.6-0.4-12.4,1.9c2.9-10.1-43,4.8-36.8,6.1c-4.5,1.6-8.7,3.6-13,5.3c-5.5,2.1-11.4,2.9-16.9,5.2
		c-6.1,2.6-28.8,10.8-9.5,12.6c-1.7,0.2-2.9,1-3.6,2.4c0.3,1.7,6.9,1.5,7.4,1.5c-2.6,4.9,9.5,3.1,10.8,2.9c-6.5,5,15.7,5,17.7,4.9
		c5-0.4,10-1.9,15-2.2c4.6-0.3,8.6,0.9,13.5,0.3c-5.5,4.5-27.8,11.8-5.1,12.8c-9.7,3.2,0.1,4.9,4.7,4.7c-3.3,6.2,12.1,3.4,13.7,3
		c-7.2,6,11.8,6,13.6,5.9c10-0.4,19.3-3.8,29-4.9c6.7-0.8,13.7,1.1,21.1-1.2c7.8-2.4,15.8-5.1,23.6-8.1c7.6-3,16.1-3.5,24.2-6.7
		c4.2-1.6,6.9-4.2,10.5-6.3c5.9-3.5-3.4-0.3,6.7-3.8c4.5-1.6,24.6-0.7,26.4-8.3c1.6-6.8-10-6.7-14.5-6.8c2-1.1,26.9-6.1,17.5-9.5
		c2-0.3,3.1-1.3,3.3-3c-1.6-2.9-11.8-1-14-0.8c3.3-1.9,13.9-6,15.4-9.7c0.8-2-19.7-2.8-21.2-2.8
		C675.9-378.1,694.8-388.3,713.6-398.6C713.9-398.8,697-389.5,713.6-398.6L713.6-398.6z M568.5-352.3c0.6-0.5,1.2-0.6,1.9-0.5
		C569.8-352.6,569.2-352.5,568.5-352.3C568.8-352.5,569.2-352.5,568.5-352.3z M562.1-368.8c5,0.2,9.8,1.2,14.8,1.7
		c-9.7,5.1-21.3,4.8-32.1,7.3C550.6-362.9,556.4-365.9,562.1-368.8C566.5-368.7,556.3-365.8,562.1-368.8L562.1-368.8z M519.2-359.7
		c2.7-1.3,6.6,0.7,8.7-0.4c-3.5,1.8-6.7,1-10.7,1.3C517.9-359.1,518.5-359.4,519.2-359.7C519.6-360,518.5-359.4,519.2-359.7z
		 M603.8-348.8c-3.5-0.2-7.1,0.2-10.6,0.6c4.1-2.2,10.4-0.6,13.5-2.4C605.8-349.9,604.8-349.4,603.8-348.8
		C601.1-349,604.8-349.4,603.8-348.8z M662.2-363.2c2.3,0.3,4.6,0.6,6.9,0.8c-11.9,6.9-27.2,7.5-40.8,11.2
		C640-357.8,648.6-364.4,662.2-363.2C664.5-363,657.3-363.6,662.2-363.2z"/>
	<path id="XMLID_492_" class="st7" d="M1217.3,1066.3c0.7-5.4-12.6-5.4-15-5.5c2-1.1,26.9-6.1,17.5-9.5c2-0.3,3.1-1.3,3.3-3
		c-1.6-2.9-11.8-1-14-0.8c3.3-1.9,13.9-6,15.4-9.7c0.8-2-19.7-2.8-21.2-2.8c18.8-10.6,39.6-19.6,57.4-31.7
		c-5.9-0.3-13.8-1.8-19.5-0.6c-11.7,2.6-25,13.4-35.5,19.3c-11.1,6.2-22.1,12.5-33.1,18.8c-6.4,3.7-11.2,6.7-18.3,7.6
		c-5.3,0.6-9.4,0.6-14.3,3.2c1.9-6.8-23.5-1.8-25-1.4c-5.6,1.4-12.2,3.1-17.3,5.7c-1,0.5-9.6,4.8-4.3,5.7c-6.6,2.7-12,5.9-18.7,8.4
		s-14.6,4.1-21.1,7.5c-7.4,3.8-34.2,14.7-10.2,15.8c-9.7,3.2,0.1,4.9,4.7,4.7c-3.3,6.2,12.1,3.4,13.7,3c-6.2,5.2,7.4,5.9,10,6
		c8.1,0.2,16.5-1.1,24.4-2.9c3.3-0.7,8.4-3.2,11.8-3.4c2-0.1,5.9,1.7,8.4,1.6c7.6-0.2,14.6-4,21.4-6.2s13.1-5.1,19.5-6.8
		c8.8-2.3,16.9-2.5,24.7-8c1.5-1.1,2.5-4.6,3.7-5.2c3.1-1.5,9-0.7,12.5-1.2C1202.1,1074.4,1216.6,1072.7,1217.3,1066.3
		C1217.8,1063,1217.1,1068.4,1217.3,1066.3L1217.3,1066.3z M1151.7,1052c2.7,0.1-10.3,2.2-12.2,2.4
		C1144,1052,1146.5,1051.7,1151.7,1052C1152.2,1052,1150.2,1051.9,1151.7,1052z M1210.9,1042.9c-5.4,3.1-12,2.2-18.2,4
		c-6,1.8-12,2.9-18.1,4.6c7.1-4.1,15.8-11.1,23.7-12.5c5.4-1,11.6,1,17,1.3C1213.9,1041.2,1212.4,1042.1,1210.9,1042.9z"/>
	<path id="XMLID_512_" class="st7" d="M1048.4-271.7c0.7-5.4-12.6-5.4-15-5.5c2-1.1,26.9-6.1,17.5-9.5c2-0.3,3.1-1.3,3.3-3
		c-1.6-2.9-11.8-1-14-0.8c3.3-1.9,13.9-6,15.4-9.7c0.8-2-19.7-2.8-21.2-2.8c18.8-10.6,39.6-19.6,57.4-31.7
		c-5.9-0.3-13.8-1.8-19.5-0.6c-11.7,2.6-25,13.4-35.5,19.3c-11.1,6.2-22.1,12.5-33.1,18.8c-6.4,3.7-11.2,6.7-18.3,7.6
		c-5.3,0.6-9.4,0.6-14.3,3.2c1.9-6.8-23.5-1.8-25-1.4c-5.6,1.4-12.2,3.1-17.3,5.7c-1,0.5-9.6,4.8-4.3,5.7c-6.6,2.7-12,5.9-18.7,8.4
		s-14.6,4.1-21.1,7.5c-7.4,3.8-34.2,14.7-10.2,15.8c-9.7,3.2,0.1,4.9,4.7,4.7c-3.3,6.2,12.1,3.4,13.7,3c-6.2,5.2,7.4,5.9,10,6
		c8.1,0.2,16.5-1.1,24.4-2.9c3.3-0.7,8.4-3.2,11.8-3.4c2-0.1,5.9,1.7,8.4,1.6c7.6-0.2,14.6-4,21.4-6.2s13.1-5.1,19.5-6.8
		c8.8-2.3,16.9-2.5,24.7-8c1.5-1.1,2.5-4.6,3.7-5.2c3.1-1.5,9-0.7,12.5-1.2C1033.1-263.6,1047.6-265.4,1048.4-271.7
		C1048.8-275,1048.1-269.6,1048.4-271.7z M982.7-286.1c2.7,0.1-10.3,2.2-12.2,2.4C975-286,977.5-286.3,982.7-286.1
		C983.2-286,981.2-286.1,982.7-286.1z M1041.9-295.2c-5.4,3.1-12,2.2-18.2,4c-6,1.8-12,2.9-18.1,4.6c7.1-4.1,15.8-11.1,23.7-12.5
		c5.4-1,11.6,1,17,1.3C1044.9-296.8,1043.5-295.9,1041.9-295.2z"/>
	<path id="XMLID_522_" class="st7" d="M1320.5,966.1c0.5-4.2-9.8-4.7-11.8-4.9c1.1-0.5,21.2-3.8,13.8-6.9c8-2.8-6.9-3.5-8.5-3.4
		c2.8-1.5,10.9-4.1,12.1-7c0.7-1.6-15.5-3-16.7-3c14.8-7.6,31.2-13.9,45.2-22.8c-4.6-0.4-11-2.1-15.6-1.2
		c-9.1,1.8-19.5,9.6-27.7,13.8c-9.2,4.7-18.4,9.5-27.6,14.3c-4.3,2.3-7.5,3.9-11.9,4.6c-4.6,0.7-7.6-0.4-12.4,1.9
		c2.9-10.1-43,4.8-36.8,6.1c-4.5,1.6-8.7,3.6-13,5.3c-5.5,2.1-11.4,2.9-16.9,5.2c-6.1,2.6-28.8,10.8-9.5,12.6
		c-1.7,0.2-2.9,1-3.6,2.4c0.3,1.7,6.9,1.5,7.4,1.5c-2.6,4.9,9.5,3.1,10.8,2.9c-6.7,5.2,26,4,28.6,3.5c10.7-2.1,21-1.4,32.1-4.5
		c5.5-1.5,10.3-3.5,15.6-4.6c6.6-1.3,12.1-2.1,18.2-5.1c1.6-0.8,2.1-3.6,3.3-4.1c2-1,7.4-0.2,9.8-0.5
		C1308.4,971.8,1319.9,971,1320.5,966.1C1320.8,963.5,1320.3,967.7,1320.5,966.1L1320.5,966.1z M1268.7,952.3
		c2.8,0.3-8.7,1.4-9.6,1.5C1262.7,952,1264.7,951.9,1268.7,952.3C1269.1,952.3,1267.6,952.2,1268.7,952.3z M1315.4,947.3
		c-7.5,4-19.9,3.4-28.6,5.4c5.7-3,12.8-8.2,19.1-8.9c4.3-0.5,8.9,1.2,13.1,1.6C1317.8,946.2,1316.6,946.8,1315.4,947.3z"/>
	<path id="XMLID_460_" class="st7" d="M1117.3,524.3c-0.5,0.3-12.1-2.3-15.9-1.8c-9.2,1.2-20.7,9.9-29.1,14.1
		c-11.4,5.8-22.7,11.7-34,17.6c-6,3.1-8.8,3.4-14.7,4.4c-4.1,0.7-7.4,0.5-11.4,2.3c2-7-27.1-1-29.5-0.3c-9.1,2.6-12.4,6.7-20.3,10.5
		c-9.2,4.4-18.5,5.8-28,9.7c-3.9,1.6-25.2,9.3-11.3,12c-11.1,6.3-22.2,12.6-33.3,19c-8.9,5.1-17.9,2.2-27.1,7.1
		c1.9-6.9-23.7-2.2-25.9-1.7c-5.7,1.4-11.7,3.2-17.1,5.5c-1.3,0.5-12.4,5.8-6.5,6.8c-7,2.8-12.8,6.3-19.8,8.9
		c-7.1,2.6-15.5,4.4-22.4,8c-7.8,4.1-36.3,15.6-10.9,16.8c-10.2,3.4,0.1,5.2,5,5c-3.5,6.6,12.9,3.6,14.5,3.2
		c-7.3,6.1,11.2,6.4,14,6.3c9.3-0.3,18.9-1.8,27.9-4.2c7.6-2.1,13.3,0.3,21.3-1.2c9.2-1.7,18.9-5.9,27.7-8.9c4.5-1.6,5.5-3,10.4-4.1
		c5.7-1.4,11.3-1.6,16.9-3.6c4.5-1.7,7.3-4.3,11.1-6.7c0.9-1.1,1.5-2.3,2-3.6c2.1-0.1,4.1-0.3,6.2-0.5c6.5-1.5,22.5-0.5,26.2-7.9
		c3.9-7.7-9.6-7.9-14.7-8c2.1-1.2,28.5-6.5,18.6-10.1c2.1-0.3,3.3-1.3,3.5-3.2c-1.6-3-12.5-1.1-14.9-0.9c5.4-3.1,10.4-7,16.3-8
		c7.9-1.3,16.1-0.3,24.2-2c13.3-2.7,27-0.7,40.7-6.3c7.2-2.9,13.5-3,21.2-5c7.6-2,11.6-7.5,18-9c4.9-1.1,20.6,0.5,22.9-5.8
		c2.2-6.2-8.5-6.6-12.5-6.9c1.2-0.6,23.7-4.2,15.4-7.6c1.7-0.2,2.7-1,2.9-2.5c-1.4-2.6-10.2-1.4-12.3-1.3c3.1-1.6,12.2-4.6,13.5-7.8
		c0.8-1.8-17.3-3.3-18.6-3.4C1084.3,540.7,1100.8,532.6,1117.3,524.3C1117.6,524.1,1102.8,531.6,1117.3,524.3L1117.3,524.3z
		 M873.3,621.3c-3.7-0.2-7.6,0.2-11.2,0.7c4.4-2.3,11-0.6,14.4-2.5C875.5,620.1,874.4,620.7,873.3,621.3
		C870.5,621.2,874.4,620.7,873.3,621.3L873.3,621.3z M931.8,600.4c1.2,0.7,2.5,1,3.8,1.1c-1.9-0.1-3.8-0.1-5.6-0.1
		C930.6,601.1,931.2,600.8,931.8,600.4C932.2,600.8,931.2,600.8,931.8,600.4L931.8,600.4z M937.2,601.6c2.1,0,4.3-0.2,6.4-0.6
		C941.6,602.5,939.8,601.8,937.2,601.6C939.2,601.6,938.8,601.7,937.2,601.6z M941.7,607.6c-12.3,7.1-28.3,7.4-42.3,11.2
		c8.5-4.9,17.5-12.1,27-13.3C930,605.2,941.9,607.5,941.7,607.6C940.4,608.3,941.8,607.6,941.7,607.6z M1021,563.3
		c-3.1-0.3-6.2-0.2-9.3,0.1c3.7-1.8,9.2,0,11.9-1.5C1022.8,562.4,1021.9,562.9,1021,563.3C1018.6,563.1,1021.9,562.9,1021,563.3z
		 M1072.3,553.2c2,0.4,4,0.7,6,1c-10.7,5.6-23.7,5.4-35.7,8.1C1053.3,556.7,1060.1,551.5,1072.3,553.2
		C1074.3,553.5,1068,552.6,1072.3,553.2z"/>
	<path id="XMLID_502_" class="st7" d="M561.9,1052.6c0.6-4.6-10.9-5.3-13.2-5.4c1.2-0.6,23.7-4.2,15.4-7.6c1.7-0.2,2.7-1,2.9-2.5
		c-1.4-2.6-10.2-1.4-12.3-1.3c3.1-1.6,12.2-4.6,13.5-7.8c0.8-1.8-17.3-3.3-18.6-3.4c16.5-8.5,34.7-15.5,50.3-25.4
		c-5.3-0.5-12.1-2.2-17.3-1.3c-9.7,1.6-21.5,10.6-30.3,15.1c-10.8,5.5-21.5,11.1-32.2,16.7c-6,3.1-8.8,3.4-14.7,4.4
		c-4.1,0.7-7.4,0.5-11.4,2.3c1.7-6.1-20.7-2.6-22.6-2.2c-3,0.6-23.4,7.9-18.3,9c-5,1.8-9.6,4.1-14.5,5.9c-6.6,2.5-14.1,3.4-20.5,6.5
		c-7,3.4-29.5,11.4-8.8,13.3c-1.9,0.2-3.3,1.1-4.1,2.7c0.3,1.9,7.7,1.6,8.2,1.6c-2.8,5.2,10.3,3.5,12,3.2c-7.3,5.7,25.4,5,28.8,4.4
		c12.7-2,23.7-1.8,36.3-5.2c5.8-1.6,11.8-3.9,17.1-5.2c8.1-2,15.3-1.2,22.8-5.8c1.4-0.9,2.6-4.1,3.6-4.6c2.6-1.3,8-0.2,10.9-0.6
		C548.4,1059,561.2,1058,561.9,1052.6C562.2,1049.7,561.7,1054.4,561.9,1052.6L561.9,1052.6z M504.3,1037.2
		c3.1,0.3-9.7,1.5-10.7,1.6C497.6,1036.9,499.7,1036.8,504.3,1037.2C504.7,1037.2,503,1037.1,504.3,1037.2z M556.2,1031.7
		c-8.6,4.5-21.9,3.7-31.9,6c6.3-3.3,14.3-9.1,21.2-9.9c4.8-0.6,9.8,1.4,14.5,1.8C558.9,1030.4,557.6,1031.1,556.2,1031.7
		L556.2,1031.7z"/>
	<g id="tree">
		<path id="XMLID_458_" class="st14" d="M782.1-549.2c-3.6-3.9-9.9-5.1-15.4-6c3.7-5.9,7.3-12.4,5.3-19.2c-1.9-6.6-7.9-8.8-14.9-9.9
			c3.4-5.9,0.4-13.1-7-15.2c1.9-3.6,0.4-8.2-3.5-10.4c-4.9-2.8-11.2-1.1-15.1,2.2c-3.6-8.4-15.6-13.3-25.4-13.3
			c-9.4-0.1-18.6,4.9-20.5,12.9c-2.3-2.1-6.1-2.8-9.4-1.9c-4.6,1.2-7.5,4.8-9.5,8.3c-4.2-0.4-9.1,0-11.8,3.1c-1.8,2-2.3,4.8-1,7
			c-7,0.6-14.4,3.3-17.9,8.8c-3.1,4.8-2.7,11.4,2.1,15.1c-4,7.2-0.7,16.6,7.4,20.5c-2,3.5-0.7,7.7,2.6,10.4
			c4.2,3.6,10.5,3.7,16.2,3.4l-0.3,0.3c-2.2,4.1-4.7,10.7,1.5,13.3c0.9,0.3,1.8,0.5,2.8,0.4c0.3,0,1.3-0.4,1.7-0.4
			c2.3,0,2.4,0.8,3.4,1.9c1.7,2,4,3.7,6.6,4.8c5.8,2.6,12.8,2.4,18.7,0.2c3-1.1,5.3-3.1,8.3-4.3c4.6-1.9,8.5,0.9,12.7,2.3
			c5.1,1.7,11,1.4,15.9-0.9c2.1-1,4.1-2.3,5.6-3.9c1-1.1,1.8-2.7,3.2-3.4c2-1.2,5.2,0.2,7.3,0.5c11.3,1.5,23.5-3.2,29.7-11.5
			C784.6-538.4,786.4-544.6,782.1-549.2L782.1-549.2z"/>
		<path id="XMLID_457_" class="st15" d="M698-531.5c0.8-1.9,0.3-4.3-1-6.1c-2.2-2.9-5.7-2.5-8.6-1.9c-1.9-6.3-8.9-5.9-10.9-0.5
			c-4.3-7.9-13.5-11.6-20.8-7.7c-7.4,4-10.7,15.1-7.7,23.9c-6.4,1.8-8.3,11.6-2.9,16.6c2.8,8.8,11,13.6,18.8,12.6
			c4.3-0.6,8.7-2.6,11.9-5.9c2.2-2.3,3.9-5.6,3.5-9c7.6,4.3,18.1,3.6,23.4-4.1C708.1-519.8,704.7-529.8,698-531.5L698-531.5z"/>
		<path id="XMLID_456_" class="st16" d="M700.4-504.1c-3.2,0.3-6.4,0.7-9.6,1c-1.6,0.1-3.2,0.3-4.8,0.5c-0.8,0.1-2.2,0.5-2.8-0.5
			c-0.3-0.5-0.2-1.8-0.2-2.5c-0.1-1.3-0.2-2.5-0.3-3.8c-0.2-2.2-0.3-4.5-0.5-6.6c-0.1-1.5-0.2-3.1-0.3-4.6c-1.7-0.1-3.5,0.6-4.6,2.5
			c0.1,2.2,0.3,4.3,0.5,6.5l0.6,8.1c0.1,2.2,0.2,4.6,1.5,6.3c2.2,3.1,6.1,1.8,8.9,1.6c3.9-0.4,7.8-0.8,11.6-1.2
			C703.2-497.2,703.7-504.4,700.4-504.1L700.4-504.1z"/>
		<path id="XMLID_455_" class="st17" d="M731.2-536.2c-0.3-4.3-0.9-8.5-1.4-12.8c-0.1-0.8-0.5-1.5-1-1.8c-1.6,1-3.3,1.9-5.1,2.7
			c-0.2,0.8-0.2,1.6-0.1,2.4c0.3,2.9,0.7,5.7,1,8.6c0.1,0.7,0.3,1.5,0.3,2.1c-0.5,0.1-1.4,0.2-1.5,0.3c-3.5,0.3-7,0.5-10.5,0.7
			c0-5.2,0.1-26.6,0.2-31.8c-4-0.5-16.1-1.7-20.2-2.3c-0.3,1-1.1,97.7,0.4,137c0.4,11.2,0.8,22.4,1.6,33.5c0,0,16.5-0.8,20.7-1.2
			v-1.2c-0.7-19.7-1.8-39.3-2.4-58.9c-0.5-19.7-0.7-39.3-0.6-59v-8.1c2.1-0.1,4.2-0.2,6.3-0.4c2.9-0.2,6.1,0,8.6-1.6
			C730.3-529.7,731.4-532.8,731.2-536.2L731.2-536.2z"/>
		<path id="XMLID_454_" class="st6" d="M765.9-511.5c-0.4-4.7-5.3-6-9.2-6.5c0.5-5.1,0-11-4.6-14.3c-4.1-2.9-8.1-1.3-11.4,1.7
			c-3.7-3.9-9.9-3.5-14-0.3c-2.3,1.8-4,4.2-5.2,6.8c-1,2.2-2.4,3-4.6,3.7c-1.6,0.6-3.1,1.3-4.5,2.2c-2,1.3-4.8,3.1-4.8,5.8
			s1.9,6.1,3.3,8.3s3.2,4.2,5.7,5c1.9,0.7,3.8,0.7,4.6,3c0.4,1.3,0.7,2.6,1.5,3.8c3.5,5.6,11.4,5.4,15.1,0.1
			c0.1-0.1,0.1-0.2,0.1-0.3c0.2-0.1,0.4-0.3,0.6-0.5c0.3-0.3,0.6-0.7,0.9-1c4.3,1.2,9.2,1.7,13.3,0.3c3.4-1.2,6.3-4.7,5-8.3
			C761.7-503.6,766.2-506.5,765.9-511.5z"/>
		<path id="XMLID_453_" class="st18" d="M734.8-513.8c-0.4,0.6-0.7,1.3-0.7,2.1c-0.4,12.2-0.2,15.8-0.3,28.1v5.8
			c-2.7,0.2-5.5,1.3-8.2,1.7c-5.9,1-7.3,1.1-13.3,0.9c-3.9-0.1-6,8.2-1.7,8.3c6.6,0.2,8.8,0,15.3-1.1c3.2-0.5,6.5-1.1,9.6-2.1
			c3.4-1.2,4.8-3.8,4.8-7.3c0.2-13.8,0.4-19.9,0.1-33.7C738.5-512.1,736.7-513.1,734.8-513.8L734.8-513.8z"/>
	</g>
	<g id="tree_3_">
		<path id="XMLID_481_" class="st14" d="M1062.4,408.9c-3.9-4.1-10.5-5.5-16.3-6.3c3.9-6.2,7.7-13.1,5.6-20.3
			c-2-7-8.3-9.4-15.8-10.5c3.7-6.3,0.5-13.8-7.5-16.1c2-3.9,0.4-8.6-3.8-11.1c-5.2-3-11.8-1.1-16,2.4c-3.8-9-16.5-14.1-27-14.2
			c-9.9-0.1-19.6,5.2-21.7,13.6c-2.5-2.3-6.4-2.9-10-2c-4.8,1.2-7.9,5-10,8.8c-4.5-0.5-9.6-0.1-12.6,3.2c-1.9,2.2-2.5,5.1-1.1,7.4
			c-7.5,0.7-15.2,3.4-19,9.4c-3.2,5.1-2.8,12,2.3,16.1c-4.3,7.7-0.8,17.6,7.9,21.8c-2.1,3.7-0.7,8.1,2.7,11c4.5,3.8,11.2,4,17.1,3.7
			c-0.1,0.1-0.2,0.2-0.3,0.4c-2.3,4.3-5,11.3,1.6,14.1c0.9,0.4,2,0.6,3,0.5c0.4-0.1,1.4-0.4,1.8-0.4c2.5-0.1,2.6,0.8,3.6,2
			c1.8,2.2,4.2,3.9,7,5.1c6.2,2.8,13.5,2.6,19.9,0.3c3.2-1.2,5.7-3.2,8.8-4.5c4.9-2.1,9.1,1,13.4,2.5c5.5,1.9,11.7,1.4,16.8-0.9
			c2.3-1,4.3-2.4,6-4.1c1.1-1.1,1.9-2.8,3.3-3.7c2.1-1.2,5.5,0.2,7.7,0.5c12,1.5,24.9-3.3,31.5-12.2
			C1065.1,420.4,1067,413.8,1062.4,408.9L1062.4,408.9z"/>
		<path id="XMLID_480_" class="st15" d="M973.3,427.7c0.8-2.1,0.4-4.6-1.1-6.4c-2.3-3-6.1-2.7-9.2-2.1c-2-6.6-9.5-6.3-11.5-0.6
			c-4.6-8.3-14.3-12.4-22-8.1c-7.9,4.3-11.3,16-8.1,25.4c-6.8,1.9-8.8,12.3-3.1,17.7c2.9,9.4,11.7,14.5,20,13.3
			c4.5-0.6,9.3-2.7,12.6-6.2c2.3-2.4,4.2-5.9,3.7-9.6c8,4.5,19.2,3.9,24.9-4.4C984,440.1,980.4,429.5,973.3,427.7L973.3,427.7z"/>
		<path id="XMLID_479_" class="st16" d="M975.8,456.7c-3.4,0.3-6.8,0.7-10.2,1.1c-1.7,0.2-3.4,0.4-5.1,0.5c-0.8,0.1-2.3,0.5-2.9-0.5
			c-0.3-0.5-0.2-2-0.3-2.6c-0.1-1.3-0.2-2.7-0.3-4.1c-0.2-2.4-0.4-4.7-0.6-7.1c-0.1-1.6-0.3-3.2-0.4-4.8c-1.9-0.2-3.8,0.6-4.8,2.6
			c0.2,2.3,0.3,4.6,0.5,6.9c0.2,2.9,0.4,5.7,0.6,8.6c0.2,2.4,0.3,4.9,1.5,6.7c2.4,3.3,6.5,2,9.5,1.6c4.1-0.4,8.2-0.8,12.4-1.3
			C978.8,464.1,979.3,456.4,975.8,456.7L975.8,456.7z"/>
		<path id="XMLID_478_" class="st17" d="M1008.4,422.7c-0.4-4.5-1-9.1-1.5-13.6c-0.1-0.9-0.5-1.5-1.1-2c-1.7,1.1-3.6,2.1-5.4,2.9
			c-0.2,0.8-0.3,1.7-0.2,2.6c0.4,3,0.7,6.1,1,9.1c0.1,0.8,0.3,1.5,0.3,2.3c-0.5,0.1-1.5,0.3-1.6,0.3c-3.7,0.4-7.4,0.6-11.1,0.8
			c0.1-5.6,0.2-28.2,0.2-33.8c-4.3-0.5-17.1-1.8-21.4-2.4c-0.3,1-1.2,103.6,0.4,145.3c0.5,11.8,0.8,23.7,1.7,35.5
			c0,0.1,17.5-0.9,22-1.3c0.1-0.4,0.1-0.9,0.1-1.3c-0.8-20.9-2-41.7-2.5-62.5c-0.5-20.9-0.7-41.7-0.7-62.6c0-2.8,0.1-5.7,0.1-8.5
			c2.2-0.1,4.4-0.3,6.6-0.4c3-0.2,6.4,0.1,9.2-1.6C1007.5,429.6,1008.7,426.3,1008.4,422.7L1008.4,422.7z"/>
		<path id="XMLID_477_" class="st6" d="M1045.2,448.9c-0.4-4.9-5.6-6.3-9.8-6.9c0.5-5.5,0-11.7-4.8-15.1c-4.3-3.1-8.5-1.4-12,1.8
			c-4-4.1-10.5-3.7-14.8-0.4c-2.5,1.9-4.2,4.5-5.5,7.3c-1.1,2.4-2.5,3.1-4.8,4c-1.7,0.6-3.3,1.4-4.8,2.4c-2.2,1.3-5.1,3.2-5,6.1
			c0,2.9,2.1,6.4,3.6,8.8c1.4,2.3,3.4,4.4,6,5.4c2.1,0.7,4,0.8,4.8,3.2c0.5,1.4,0.7,2.8,1.5,4.1c3.8,6,12.1,5.7,16.1,0.2
			c0.1-0.1,0.2-0.3,0.2-0.4c0.2-0.2,0.4-0.4,0.6-0.5c0.4-0.3,0.6-0.8,1-1.1c4.6,1.2,9.7,1.8,14.1,0.4c3.7-1.2,6.6-5,5.3-8.8
			C1040.8,457.3,1045.6,454.2,1045.2,448.9L1045.2,448.9z"/>
		<path id="XMLID_476_" class="st18" d="M1012.3,446.5c-0.5,0.6-0.7,1.4-0.8,2.3c-0.4,13-0.3,16.8-0.3,29.8v4.6
			c0,0.2-0.1,0.8-0.1,1.4c-2.9,0.3-5.9,1.4-8.7,1.9c-6.2,1-7.7,1.2-14.1,1c-4.2-0.2-6.3,8.6-1.9,8.8c7.1,0.3,9.3,0.1,16.3-1.1
			c3.4-0.6,6.9-1.2,10.1-2.3c3.7-1.2,5-4,5.1-7.7c0.2-14.6,0.4-21.1,0.1-35.7C1016.2,448.2,1014.3,447.2,1012.3,446.5L1012.3,446.5z
			"/>
	</g>
	<g id="tree_6_">
		<path id="XMLID_511_" class="st14" d="M1159.3-484.7c-3.6-3.9-9.9-5.1-15.4-6c3.7-5.9,7.3-12.4,5.3-19.2
			c-1.9-6.6-7.9-8.8-14.9-9.9c3.4-5.9,0.4-13.1-7-15.2c1.9-3.6,0.4-8.2-3.5-10.4c-4.9-2.8-11.2-1.1-15.1,2.2
			c-3.6-8.4-15.6-13.3-25.4-13.3c-9.3-0.1-18.5,4.9-20.4,12.9c-2.3-2.1-6.1-2.8-9.4-1.9c-4.6,1.2-7.5,4.8-9.5,8.3
			c-4.2-0.4-9.1,0-11.8,3.1c-1.8,2-2.3,4.8-1,7c-7,0.6-14.4,3.3-17.9,8.8c-3.1,4.8-2.7,11.4,2.1,15.1c-4,7.2-0.7,16.6,7.4,20.5
			c-2,3.5-0.7,7.7,2.6,10.4c4.2,3.6,10.5,3.7,16.2,3.4l-0.3,0.3c-2.2,4.1-4.7,10.7,1.5,13.3c0.9,0.3,1.8,0.5,2.8,0.4
			c0.3,0,1.3-0.4,1.7-0.4c2.3,0,2.4,0.8,3.4,1.9c1.7,2,4,3.7,6.6,4.8c5.8,2.6,12.8,2.4,18.7,0.2c3-1.1,5.3-3.1,8.3-4.3
			c4.6-1.9,8.5,0.9,12.7,2.3c5.1,1.7,11,1.4,15.9-0.9c2.1-1,4.1-2.3,5.6-3.9c1-1.1,1.8-2.7,3.2-3.4c2-1.2,5.2,0.2,7.3,0.5
			c11.3,1.5,23.5-3.2,29.7-11.5C1161.8-473.8,1163.6-480,1159.3-484.7L1159.3-484.7z"/>
		<path id="XMLID_510_" class="st15" d="M1075.2-466.9c0.8-1.9,0.3-4.3-1-6.1c-2.2-2.9-5.7-2.5-8.6-1.9c-1.9-6.3-8.9-5.9-10.9-0.5
			c-4.3-7.9-13.5-11.6-20.8-7.7c-7.4,4-10.7,15.1-7.7,23.9c-6.4,1.8-8.3,11.6-2.9,16.6c2.8,8.8,11,13.6,18.8,12.6
			c4.3-0.6,8.7-2.6,11.9-5.9c2.2-2.3,3.9-5.6,3.5-9c7.6,4.3,18.1,3.6,23.4-4.1C1085.3-455.2,1081.9-465.3,1075.2-466.9L1075.2-466.9
			z"/>
		<path id="XMLID_509_" class="st16" d="M1077.6-439.6c-3.2,0.3-6.4,0.7-9.6,1c-1.6,0.1-3.2,0.3-4.8,0.5c-0.8,0.1-2.2,0.5-2.8-0.5
			c-0.3-0.5-0.2-1.8-0.2-2.5c-0.1-1.3-0.2-2.5-0.3-3.8c-0.2-2.2-0.3-4.5-0.5-6.6c-0.1-1.5-0.2-3.1-0.3-4.6c-1.7-0.1-3.5,0.6-4.6,2.5
			c0.1,2.2,0.3,4.3,0.5,6.5l0.6,8.1c0.1,2.2,0.2,4.6,1.5,6.3c2.2,3.1,6.1,1.8,8.9,1.6c3.9-0.4,7.8-0.8,11.6-1.2
			C1080.4-432.6,1080.9-439.9,1077.6-439.6L1077.6-439.6z"/>
		<path id="XMLID_508_" class="st17" d="M1108.4-471.7c-0.3-4.3-0.9-8.5-1.4-12.8c-0.1-0.8-0.5-1.5-1-1.8c-1.6,1-3.3,1.9-5.1,2.7
			c-0.2,0.8-0.2,1.6-0.1,2.4c0.3,2.9,0.7,5.7,1,8.6c0.1,0.7,0.3,1.5,0.3,2.1c-0.5,0.1-1.4,0.2-1.5,0.3c-3.5,0.3-7,0.5-10.5,0.7
			c0-5.2,0.1-26.6,0.2-31.8c-4-0.5-16.1-1.7-20.2-2.3c-0.3,1-1.1,97.7,0.4,137c0.4,11.2,0.8,22.4,1.6,33.5c0,0,16.5-0.8,20.7-1.2
			v-1.2c-0.7-19.7-1.8-39.3-2.4-58.9c-0.5-19.7-0.7-39.3-0.6-59v-8.1c2.1-0.1,4.2-0.2,6.3-0.4c2.9-0.2,6.1,0,8.6-1.6
			C1107.5-465.2,1108.7-468.3,1108.4-471.7L1108.4-471.7z"/>
		<path id="XMLID_507_" class="st6" d="M1143.1-446.9c-0.4-4.7-5.3-6-9.2-6.5c0.5-5.1,0-11-4.6-14.3c-4.1-2.9-8.1-1.3-11.4,1.7
			c-3.7-3.9-9.9-3.5-14-0.3c-2.3,1.8-4,4.2-5.2,6.8c-1,2.2-2.4,3-4.6,3.7c-1.6,0.6-3.1,1.3-4.5,2.2c-2,1.3-4.8,3.1-4.8,5.8
			c0,2.7,1.9,6.1,3.3,8.3c1.4,2.2,3.2,4.2,5.7,5c1.9,0.7,3.8,0.7,4.6,3c0.4,1.3,0.7,2.6,1.5,3.8c3.5,5.6,11.4,5.4,15.1,0.1
			c0.1-0.1,0.1-0.2,0.1-0.3c0.2-0.1,0.4-0.3,0.6-0.5c0.3-0.3,0.6-0.7,0.9-1c4.3,1.2,9.2,1.7,13.3,0.3c3.4-1.2,6.3-4.7,5-8.3
			C1138.9-439.1,1143.5-441.9,1143.1-446.9L1143.1-446.9z"/>
		<path id="XMLID_506_" class="st18" d="M1112-449.2c-0.4,0.6-0.7,1.3-0.7,2.1c-0.4,12.2-0.2,15.8-0.3,28.1v5.8
			c-2.7,0.2-5.5,1.3-8.2,1.7c-5.9,1-7.3,1.1-13.3,0.9c-3.9-0.1-6,8.2-1.7,8.3c6.6,0.2,8.8,0,15.3-1.1c3.2-0.5,6.5-1.1,9.6-2.1
			c3.4-1.2,4.8-3.8,4.8-7.3c0.2-13.8,0.4-19.9,0.1-33.7C1115.7-447.6,1113.9-448.5,1112-449.2L1112-449.2z"/>
	</g>
	<g id="tree_1_">
		<path id="XMLID_451_" class="st14" d="M543.4-513c2.9-3.1,7.8-4.1,12.1-4.7c-2.9-4.6-5.7-9.8-4.2-15.1c1.5-5.2,6.2-7,11.7-7.8
			c-2.7-4.7-0.3-10.3,5.5-12c-1.5-2.9-0.3-6.4,2.8-8.2c3.9-2.2,8.8-0.8,11.9,1.8c2.8-6.7,12.3-10.4,20-10.5
			c7.3-0.1,14.6,3.9,16.1,10.1c1.8-1.7,4.8-2.2,7.4-1.5c3.6,0.9,5.9,3.7,7.5,6.5c3.3-0.3,7.2,0,9.3,2.4c1.4,1.6,1.8,3.8,0.8,5.5
			c5.5,0.5,11.3,2.6,14.1,7c2.4,3.8,2.1,8.9-1.7,11.9c3.2,5.7,0.6,13.1-5.9,16.2c1.6,2.8,0.5,6-2,8.2c-3.3,2.8-8.3,2.9-12.7,2.7
			c0.1,0.1,0.2,0.2,0.2,0.3c1.7,3.2,3.7,8.4-1.2,10.4c-0.7,0.3-1.5,0.4-2.2,0.3c-0.3,0-1-0.3-1.3-0.3c-1.8,0-1.9,0.6-2.7,1.5
			c-1.3,1.6-3.1,2.9-5.2,3.8c-4.6,2.1-10.1,1.9-14.8,0.2c-2.4-0.9-4.2-2.4-6.5-3.4c-3.6-1.5-6.7,0.7-10,1.8
			c-4.1,1.4-8.7,1.1-12.5-0.7c-1.7-0.8-3.2-1.8-4.4-3.1c-0.8-0.8-1.4-2.1-2.5-2.7c-1.6-0.9-4.1,0.2-5.7,0.4
			c-8.9,1.1-18.5-2.5-23.4-9C541.4-504.5,540-509.4,543.4-513L543.4-513z"/>
		<path id="XMLID_450_" class="st15" d="M609.6-499.1c-0.6-1.5-0.3-3.4,0.8-4.8c1.7-2.3,4.5-2,6.8-1.5c1.5-4.9,7-4.7,8.6-0.4
			c3.4-6.2,10.6-9.2,16.4-6c5.9,3.2,8.4,11.9,6,18.9c5,1.4,6.5,9.1,2.3,13.1c-2.2,7-8.7,10.7-14.8,9.9c-3.4-0.5-6.9-2-9.4-4.6
			c-1.7-1.8-3.1-4.4-2.8-7.1c-6,3.4-14.2,2.9-18.5-3.3C601.7-489.9,604.3-497.8,609.6-499.1L609.6-499.1z"/>
		<path id="XMLID_448_" class="st16" d="M607.7-477.5c2.5,0.2,5,0.5,7.6,0.8c1.3,0.1,2.5,0.3,3.8,0.4c0.6,0.1,1.7,0.4,2.2-0.4
			c0.2-0.4,0.2-1.5,0.2-2c0.1-1,0.2-2,0.2-3c0.2-1.8,0.3-3.5,0.4-5.2l0.3-3.6c1.4-0.1,2.8,0.5,3.6,2c-0.1,1.7-0.2,3.4-0.4,5.1
			c-0.2,2.1-0.3,4.2-0.5,6.4c-0.1,1.8-0.2,3.6-1.1,5c-1.8,2.4-4.8,1.5-7,1.2c-3.1-0.3-6.1-0.6-9.2-1
			C605.5-472,605.1-477.7,607.7-477.5L607.7-477.5z"/>
		<path id="XMLID_447_" class="st17" d="M583.5-502.8c0.3-3.4,0.7-6.7,1.1-10.1c0.1-0.7,0.4-1.1,0.8-1.5c1.3,0.8,2.6,1.5,4,2.1
			c0.2,0.6,0.2,1.3,0.1,1.9c-0.3,2.3-0.5,4.5-0.8,6.8c-0.1,0.6-0.2,1.1-0.2,1.7c0.4,0.1,1.1,0.2,1.2,0.2c2.8,0.3,5.5,0.4,8.3,0.6
			c0-4.1-0.1-21-0.2-25.1c3.2-0.4,12.7-1.3,15.9-1.8c0.2,0.8,0.9,77-0.3,107.9c-0.3,8.8-0.6,17.6-1.3,26.4c0,0-13-0.7-16.3-1v-1
			c0.6-15.5,1.5-30.9,1.9-46.4s0.5-31,0.5-46.5v-6.3c-1.6-0.1-3.3-0.2-4.9-0.3c-2.3-0.2-4.8,0-6.8-1.2
			C584.1-497.7,583.3-500.2,583.5-502.8L583.5-502.8z"/>
		<path id="XMLID_446_" class="st6" d="M556.1-483.3c0.3-3.7,4.2-4.7,7.3-5.1c-0.4-4.1,0-8.7,3.6-11.2c3.2-2.3,6.3-1,8.9,1.3
			c2.9-3.1,7.8-2.8,11-0.3c1.8,1.4,3.1,3.3,4.1,5.4c0.8,1.8,1.9,2.3,3.6,2.9c1.3,0.5,2.4,1,3.6,1.8c1.6,1,3.8,2.4,3.7,4.6
			c0,2.1-1.5,4.8-2.6,6.5s-2.5,3.3-4.5,4c-1.5,0.5-3,0.6-3.6,2.4c-0.3,1-0.5,2.1-1.1,3c-2.8,4.4-9,4.2-11.9,0.1
			c-0.1-0.1-0.1-0.2-0.1-0.3c-0.2-0.1-0.3-0.3-0.5-0.4c-0.3-0.2-0.5-0.6-0.7-0.8c-3.4,0.9-7.2,1.3-10.4,0.3
			c-2.7-0.9-4.9-3.7-3.9-6.5C559.4-477.1,555.8-479.4,556.1-483.3L556.1-483.3z"/>
		<path id="XMLID_444_" class="st18" d="M580.6-485.1c0.3,0.5,0.5,1,0.6,1.7c0.3,9.6,0.2,12.5,0.2,22.1v4.5c2.1,0.2,4.4,1,6.5,1.4
			c4.6,0.8,5.7,0.9,10.4,0.7c3.1-0.1,4.7,6.4,1.4,6.5c-5.2,0.2-6.9,0-12.1-0.8c-2.5-0.4-5.1-0.9-7.5-1.7c-2.7-0.9-3.7-3-3.8-5.7
			c-0.2-10.9-0.3-15.7-0.1-26.5C577.7-483.8,579.1-484.6,580.6-485.1z"/>
	</g>
	<g id="tree_7_">
		<path id="XMLID_521_" class="st14" d="M1286.3,799.5c2.9-3.1,7.8-4.1,12.1-4.7c-2.9-4.6-5.7-9.8-4.2-15.1c1.5-5.2,6.2-7,11.7-7.8
			c-2.7-4.7-0.3-10.3,5.5-12c-1.5-2.9-0.3-6.4,2.8-8.2c3.9-2.2,8.8-0.8,11.9,1.8c2.8-6.7,12.3-10.4,20-10.5
			c7.3-0.1,14.6,3.9,16.1,10.1c1.8-1.7,4.8-2.2,7.4-1.5c3.6,0.9,5.9,3.7,7.5,6.5c3.3-0.3,7.2,0,9.3,2.4c1.4,1.6,1.8,3.8,0.8,5.5
			c5.5,0.5,11.3,2.6,14.1,7c2.4,3.8,2.1,8.9-1.7,11.9c3.2,5.7,0.6,13.1-5.9,16.2c1.6,2.8,0.5,6-2,8.2c-3.3,2.8-8.3,2.9-12.7,2.7
			c0.1,0.1,0.2,0.2,0.2,0.3c1.7,3.2,3.7,8.4-1.2,10.4c-0.7,0.3-1.5,0.4-2.2,0.3c-0.3,0-1-0.3-1.3-0.3c-1.8,0-1.9,0.6-2.7,1.5
			c-1.3,1.6-3.1,2.9-5.2,3.8c-4.6,2.1-10.1,1.9-14.8,0.2c-2.4-0.9-4.2-2.4-6.5-3.4c-3.6-1.5-6.7,0.7-10,1.8
			c-4.1,1.4-8.7,1.1-12.5-0.7c-1.7-0.8-3.2-1.8-4.4-3.1c-0.8-0.8-1.4-2.1-2.5-2.7c-1.6-0.9-4.1,0.2-5.7,0.4
			c-8.9,1.1-18.5-2.5-23.4-9C1284.3,808,1282.9,803.1,1286.3,799.5L1286.3,799.5z"/>
		<path id="XMLID_520_" class="st15" d="M1352.5,813.5c-0.6-1.5-0.3-3.4,0.8-4.8c1.7-2.3,4.5-2,6.8-1.5c1.5-4.9,7-4.7,8.6-0.4
			c3.4-6.2,10.6-9.2,16.4-6c5.9,3.2,8.4,11.9,6,18.9c5,1.4,6.5,9.1,2.3,13.1c-2.2,7-8.7,10.7-14.8,9.9c-3.4-0.5-6.9-2-9.4-4.6
			c-1.7-1.8-3.1-4.4-2.8-7.1c-6,3.4-14.2,2.9-18.5-3.3C1344.6,822.7,1347.2,814.8,1352.5,813.5L1352.5,813.5z"/>
		<path id="XMLID_519_" class="st16" d="M1350.6,835c2.5,0.2,5,0.5,7.6,0.8c1.3,0.1,2.5,0.3,3.8,0.4c0.6,0.1,1.7,0.4,2.2-0.4
			c0.2-0.4,0.2-1.5,0.2-2c0.1-1,0.2-2,0.2-3c0.2-1.8,0.3-3.5,0.4-5.2l0.3-3.6c1.4-0.1,2.8,0.5,3.6,2c-0.1,1.7-0.2,3.4-0.4,5.1
			c-0.2,2.1-0.3,4.2-0.5,6.4c-0.1,1.8-0.2,3.6-1.1,5c-1.8,2.4-4.8,1.5-7,1.2c-3.1-0.3-6.1-0.6-9.2-1
			C1348.4,840.5,1348,834.8,1350.6,835z"/>
		<path id="XMLID_518_" class="st17" d="M1326.4,809.7c0.3-3.4,0.7-6.7,1.1-10.1c0.1-0.7,0.4-1.1,0.8-1.5c1.3,0.8,2.6,1.5,4,2.1
			c0.2,0.6,0.2,1.3,0.1,1.9c-0.3,2.3-0.5,4.5-0.8,6.8c-0.1,0.6-0.2,1.1-0.2,1.7c0.4,0.1,1.1,0.2,1.2,0.2c2.8,0.3,5.5,0.4,8.3,0.6
			c0-4.1-0.1-21-0.2-25.1c3.2-0.4,12.7-1.3,15.9-1.8c0.2,0.8,0.9,77-0.3,107.9c-0.3,8.8-0.6,17.6-1.3,26.4c0,0-13-0.7-16.3-1v-1
			c0.6-15.5,1.5-30.9,1.9-46.4s0.5-31,0.5-46.5v-6.3c-1.6-0.1-3.3-0.2-4.9-0.3c-2.3-0.2-4.8,0-6.8-1.2
			C1327,814.8,1326.2,812.4,1326.4,809.7L1326.4,809.7z"/>
		<path id="XMLID_517_" class="st6" d="M1299,829.2c0.3-3.7,4.2-4.7,7.3-5.1c-0.4-4.1,0-8.7,3.6-11.2c3.2-2.3,6.3-1,8.9,1.3
			c2.9-3.1,7.8-2.8,11-0.3c1.8,1.4,3.1,3.3,4.1,5.4c0.8,1.8,1.9,2.3,3.6,2.9c1.3,0.5,2.4,1,3.6,1.8c1.6,1,3.8,2.4,3.7,4.6
			c0,2.1-1.5,4.8-2.6,6.5s-2.5,3.3-4.5,4c-1.5,0.5-3,0.6-3.6,2.4c-0.3,1-0.5,2.1-1.1,3c-2.8,4.4-9,4.2-11.9,0.1
			c-0.1-0.1-0.1-0.2-0.1-0.3c-0.2-0.1-0.3-0.3-0.5-0.4c-0.3-0.2-0.5-0.6-0.7-0.8c-3.4,0.9-7.2,1.3-10.4,0.3
			c-2.7-0.9-4.9-3.7-3.9-6.5C1302.3,835.4,1298.7,833.2,1299,829.2L1299,829.2z"/>
		<path id="XMLID_516_" class="st18" d="M1323.5,827.4c0.3,0.5,0.5,1,0.6,1.7c0.3,9.6,0.2,12.5,0.2,22.1v4.5c2.1,0.2,4.4,1,6.5,1.4
			c4.6,0.8,5.7,0.9,10.4,0.7c3.1-0.1,4.7,6.4,1.4,6.5c-5.2,0.2-6.9,0-12.1-0.8c-2.5-0.4-5.1-0.9-7.5-1.7c-2.7-0.9-3.7-3-3.8-5.7
			c-0.2-10.9-0.3-15.7-0.1-26.5C1320.6,828.7,1322,828,1323.5,827.4L1323.5,827.4z"/>
	</g>
	<g id="tree_2_">
		<path id="XMLID_471_" class="st14" d="M1040.7,391c3.2-3.4,8.6-4.5,13.5-5.2c-3.2-5.2-6.4-10.9-4.6-16.8c1.7-5.7,6.9-7.7,13-8.7
			c-3-5.2-0.4-11.5,6.2-13.3c-1.7-3.2-0.3-7.2,3.1-9.2c4.3-2.5,9.8-0.9,13.2,2c3.2-7.4,13.7-11.6,22.3-11.7
			c8.2-0.1,16.2,4.3,17.9,11.3c2-1.9,5.3-2.4,8.3-1.7c4,1,6.6,4.2,8.3,7.3c3.7-0.4,8,0,10.4,2.7c1.6,1.8,2,4.2,0.9,6.1
			c6.2,0.6,12.6,2.9,15.7,7.7c2.7,4.2,2.3,10-1.9,13.3c3.5,6.3,0.6,14.6-6.5,18c1.7,3.1,0.6,6.7-2.3,9.1c-3.7,3.2-9.2,3.3-14.2,3
			l0.3,0.3c1.9,3.6,4.1,9.4-1.3,11.6c-0.8,0.3-1.6,0.5-2.5,0.4c-0.3,0-1.1-0.3-1.4-0.3c-2,0-2.1,0.7-3,1.7c-1.5,1.8-3.5,3.2-5.8,4.2
			c-5.1,2.3-11.2,2.1-16.4,0.2c-2.6-1-4.7-2.7-7.2-3.7c-4-1.7-7.5,0.8-11.1,2c-4.5,1.5-9.7,1.2-13.9-0.8c-1.9-0.9-3.6-2-4.9-3.4
			c-0.9-0.9-1.6-2.3-2.8-3c-1.7-1-4.6,0.2-6.4,0.4c-9.9,1.3-20.6-2.8-26.1-10C1038.5,400.5,1036.9,395,1040.7,391L1040.7,391z"/>
		<path id="XMLID_470_" class="st15" d="M1114.4,406.5c-0.7-1.7-0.3-3.8,0.9-5.3c1.9-2.5,5-2.2,7.6-1.7c1.7-5.5,7.8-5.2,9.5-0.5
			c3.8-6.9,11.8-10.2,18.2-6.7c6.5,3.5,9.4,13.2,6.7,21c5.6,1.6,7.2,10.1,2.6,14.6c-2.4,7.7-9.7,12-16.5,11
			c-3.7-0.5-7.7-2.3-10.4-5.2c-1.9-2-3.4-4.9-3.1-7.9c-6.6,3.7-15.8,3.2-20.6-3.6C1105.6,416.8,1108.6,408,1114.4,406.5
			L1114.4,406.5z"/>
		<path id="XMLID_469_" class="st16" d="M1112.3,430.6l8.4,0.9c1.4,0.1,2.8,0.3,4.2,0.4c0.7,0.1,1.9,0.4,2.4-0.4
			c0.3-0.4,0.2-1.6,0.2-2.2c0.1-1.1,0.2-2.2,0.3-3.4c0.2-2,0.3-3.9,0.5-5.8c0.1-1.3,0.2-2.7,0.3-4c1.5-0.1,3.1,0.5,4,2.2
			c-0.1,1.9-0.3,3.8-0.4,5.7c-0.2,2.4-0.3,4.7-0.5,7.1c-0.1,2-0.2,4-1.3,5.5c-2,2.7-5.4,1.6-7.8,1.4c-3.4-0.3-6.8-0.7-10.2-1.1
			C1109.9,436.6,1109.4,430.3,1112.3,430.6L1112.3,430.6z"/>
		<path id="XMLID_468_" class="st17" d="M1085.3,402.4c0.3-3.7,0.8-7.5,1.2-11.2c0.1-0.7,0.4-1.3,0.9-1.6c1.4,0.9,2.9,1.7,4.5,2.4
			c0.2,0.7,0.2,1.4,0.1,2.1l-0.9,7.5c-0.1,0.6-0.3,1.3-0.3,1.9c0.4,0.1,1.2,0.2,1.3,0.3c3.1,0.3,6.1,0.5,9.2,0.6
			c0-4.6-0.1-23.3-0.2-27.9c3.5-0.4,14.2-1.4,17.7-2c0.3,0.9,1,85.7-0.3,120.2c-0.4,9.8-0.7,19.6-1.4,29.4c0,0-14.5-0.7-18.2-1.1
			v-1.1c0.6-17.2,1.6-34.4,2.1-51.7c0.4-17.2,0.6-34.5,0.6-51.7v-7.1c-1.8-0.1-3.7-0.2-5.5-0.3c-2.5-0.2-5.3,0-7.6-1.4
			C1086.1,408.1,1085.1,405.3,1085.3,402.4L1085.3,402.4z"/>
		<path id="XMLID_467_" class="st6" d="M1054.9,424.1c0.3-4.1,4.6-5.2,8.1-5.7c-0.4-4.5,0-9.7,4-12.5c3.6-2.6,7.1-1.1,10,1.5
			c3.3-3.4,8.6-3.1,12.3-0.3c2,1.6,3.5,3.7,4.6,6c0.9,2,2.1,2.6,4,3.3c1.4,0.5,2.7,1.1,4,2c1.8,1.1,4.2,2.7,4.2,5.1
			s-1.7,5.3-2.9,7.3c-1.2,1.9-2.8,3.7-5,4.4c-1.7,0.6-3.3,0.6-4,2.6c-0.4,1.1-0.6,2.3-1.3,3.4c-3.1,4.9-10,4.7-13.3,0.1
			c-0.1-0.1-0.1-0.2-0.1-0.3c-0.2-0.1-0.3-0.3-0.5-0.4c-0.3-0.3-0.5-0.6-0.8-0.9c-3.8,1-8,1.5-11.6,0.3c-3-1-5.5-4.1-4.3-7.2
			C1058.6,431,1054.6,428.5,1054.9,424.1L1054.9,424.1z"/>
		<path id="XMLID_466_" class="st18" d="M1082.2,422.1c0.4,0.5,0.6,1.1,0.6,1.9c0.3,10.7,0.2,13.9,0.3,24.6v5
			c2.4,0.2,4.9,1.1,7.2,1.5c5.2,0.9,6.4,1,11.6,0.8c3.4-0.1,5.2,7.2,1.5,7.3c-5.8,0.2-7.7,0-13.5-0.9c-2.8-0.5-5.7-1-8.4-1.9
			c-3-1-4.2-3.3-4.2-6.4c-0.2-12.1-0.3-17.5-0.1-29.5C1078.9,423.5,1080.5,422.7,1082.2,422.1z"/>
	</g>
	<g id="tree_5_">
		<path id="XMLID_501_" class="st14" d="M522.5,866.3c3.2-3.4,8.6-4.5,13.5-5.2c-3.2-5.2-6.4-10.9-4.6-16.8c1.7-5.7,6.9-7.7,13-8.7
			c-3-5.2-0.4-11.5,6.2-13.3c-1.7-3.2-0.3-7.2,3.1-9.2c4.3-2.5,9.8-0.9,13.2,2c3.2-7.4,13.7-11.6,22.3-11.7
			c8.2-0.1,16.2,4.3,17.9,11.3c2-1.9,5.3-2.4,8.3-1.7c4,1,6.6,4.2,8.3,7.3c3.7-0.4,8,0,10.4,2.7c1.6,1.8,2,4.2,0.9,6.1
			c6.2,0.6,12.6,2.9,15.7,7.7c2.7,4.2,2.3,10-1.9,13.3c3.5,6.3,0.6,14.6-6.5,18c1.7,3.1,0.6,6.7-2.3,9.1c-3.7,3.2-9.2,3.3-14.2,3
			l0.3,0.3c1.9,3.6,4.1,9.4-1.3,11.6c-0.8,0.3-1.6,0.5-2.5,0.4c-0.3,0-1.1-0.3-1.4-0.3c-2,0-2.1,0.7-3,1.7c-1.5,1.8-3.5,3.2-5.8,4.2
			c-5.1,2.3-11.2,2.1-16.4,0.2c-2.6-1-4.7-2.7-7.2-3.7c-4-1.7-7.5,0.8-11.1,2c-4.5,1.5-9.7,1.2-13.9-0.8c-1.9-0.9-3.6-2-4.9-3.4
			c-0.9-0.9-1.6-2.3-2.8-3c-1.7-1-4.6,0.2-6.4,0.4c-9.9,1.3-20.6-2.8-26.1-10C520.2,875.8,518.7,870.4,522.5,866.3L522.5,866.3z"/>
		<path id="XMLID_500_" class="st15" d="M596.2,881.9c-0.7-1.7-0.3-3.8,0.9-5.3c1.9-2.5,5-2.2,7.6-1.7c1.7-5.5,7.8-5.2,9.5-0.5
			c3.8-6.9,11.8-10.2,18.2-6.7c6.5,3.5,9.4,13.2,6.7,21c5.6,1.6,7.2,10.1,2.6,14.6c-2.4,7.7-9.7,12-16.5,11
			c-3.7-0.5-7.7-2.3-10.4-5.2c-1.9-2-3.4-4.9-3.1-7.9c-6.6,3.7-15.8,3.2-20.6-3.6C587.3,892.1,590.3,883.3,596.2,881.9L596.2,881.9z
			"/>
		<path id="XMLID_499_" class="st16" d="M594.1,905.9l8.4,0.9c1.4,0.1,2.8,0.3,4.2,0.4c0.7,0.1,1.9,0.4,2.4-0.4
			c0.3-0.4,0.2-1.6,0.2-2.2c0.1-1.1,0.2-2.2,0.3-3.4c0.2-2,0.3-3.9,0.5-5.8c0.1-1.3,0.2-2.7,0.3-4c1.5-0.1,3.1,0.5,4,2.2
			c-0.1,1.9-0.3,3.8-0.4,5.7c-0.2,2.4-0.3,4.7-0.5,7.1c-0.1,2-0.2,4-1.3,5.5c-2,2.7-5.4,1.6-7.8,1.4c-3.4-0.3-6.8-0.7-10.2-1.1
			C591.6,912,591.2,905.6,594.1,905.9L594.1,905.9z"/>
		<path id="XMLID_498_" class="st17" d="M567.1,877.7c0.3-3.7,0.8-7.5,1.2-11.2c0.1-0.7,0.4-1.3,0.9-1.6c1.4,0.9,2.9,1.7,4.5,2.4
			c0.2,0.7,0.2,1.4,0.1,2.1l-0.9,7.5c-0.1,0.6-0.3,1.3-0.3,1.9c0.4,0.1,1.2,0.2,1.3,0.3c3.1,0.3,6.1,0.5,9.2,0.6
			c0-4.6-0.1-23.3-0.2-27.9c3.5-0.4,14.2-1.4,17.7-2c0.3,0.9,1,85.7-0.3,120.2c-0.4,9.8-0.7,19.6-1.4,29.4c0,0-14.5-0.7-18.2-1.1
			v-1.1c0.6-17.2,1.6-34.4,2.1-51.7c0.4-17.2,0.6-34.5,0.6-51.7v-7.1c-1.8-0.1-3.7-0.2-5.5-0.3c-2.5-0.2-5.3,0-7.6-1.4
			C567.8,883.4,566.9,880.7,567.1,877.7L567.1,877.7z"/>
		<path id="XMLID_497_" class="st6" d="M536.7,899.4c0.3-4.1,4.6-5.2,8.1-5.7c-0.4-4.5,0-9.7,4-12.5c3.6-2.6,7.1-1.1,10,1.5
			c3.3-3.4,8.6-3.1,12.3-0.3c2,1.6,3.5,3.7,4.6,6c0.9,2,2.1,2.6,4,3.3c1.4,0.5,2.7,1.1,4,2c1.8,1.1,4.2,2.7,4.2,5.1
			s-1.7,5.3-2.9,7.3c-1.2,1.9-2.8,3.7-5,4.4c-1.7,0.6-3.3,0.6-4,2.6c-0.4,1.1-0.6,2.3-1.3,3.4c-3.1,4.9-10,4.7-13.3,0.1
			c-0.1-0.1-0.1-0.2-0.1-0.3c-0.2-0.1-0.3-0.3-0.5-0.4c-0.3-0.3-0.5-0.6-0.8-0.9c-3.8,1-8,1.5-11.6,0.3c-3-1-5.5-4.1-4.3-7.2
			C540.3,906.3,536.3,903.8,536.7,899.4L536.7,899.4z"/>
		<path id="XMLID_496_" class="st18" d="M563.9,897.4c0.4,0.5,0.6,1.1,0.6,1.9c0.3,10.7,0.2,13.9,0.3,24.6v5
			c2.4,0.2,4.9,1.1,7.2,1.5c5.2,0.9,6.4,1,11.6,0.8c3.4-0.1,5.2,7.2,1.5,7.3c-5.8,0.2-7.7,0-13.5-0.9c-2.8-0.5-5.7-1-8.4-1.9
			c-3-1-4.2-3.3-4.2-6.4c-0.2-12.1-0.3-17.5-0.1-29.5C560.6,898.9,562.3,898,563.9,897.4L563.9,897.4z"/>
	</g>
	<g id="tree_4_">
		<path id="XMLID_491_" class="st14" d="M1326.3,853.4c-3.6-3.9-9.9-5.1-15.4-6c3.7-5.9,7.3-12.4,5.3-19.2
			c-1.9-6.6-7.9-8.8-14.9-9.9c3.4-5.9,0.4-13.1-7-15.2c1.9-3.6,0.4-8.2-3.5-10.4c-4.9-2.8-11.2-1.1-15.1,2.2
			c-3.6-8.4-15.6-13.3-25.4-13.3c-9.3-0.1-18.5,4.9-20.4,12.9c-2.3-2.1-6.1-2.8-9.4-1.9c-4.6,1.2-7.5,4.8-9.5,8.3
			c-4.2-0.4-9.1,0-11.8,3.1c-1.8,2-2.3,4.8-1,7c-7,0.6-14.4,3.3-17.9,8.8c-3.1,4.8-2.7,11.4,2.1,15.1c-4,7.2-0.7,16.6,7.4,20.5
			c-2,3.5-0.7,7.7,2.6,10.4c4.2,3.6,10.5,3.7,16.2,3.4l-0.3,0.3c-2.2,4.1-4.7,10.7,1.5,13.3c0.9,0.3,1.8,0.5,2.8,0.4
			c0.3,0,1.3-0.4,1.7-0.4c2.3,0,2.4,0.8,3.4,1.9c1.7,2,4,3.7,6.6,4.8c5.8,2.6,12.8,2.4,18.7,0.2c3-1.1,5.3-3.1,8.3-4.3
			c4.6-1.9,8.5,0.9,12.7,2.3c5.1,1.7,11,1.4,15.9-0.9c2.1-1,4.1-2.3,5.6-3.9c1-1.1,1.8-2.7,3.2-3.4c2-1.2,5.2,0.2,7.3,0.5
			c11.3,1.5,23.5-3.2,29.7-11.5C1328.8,864.2,1330.6,858,1326.3,853.4L1326.3,853.4z"/>
		<path id="XMLID_490_" class="st15" d="M1242.2,871.1c0.8-1.9,0.3-4.3-1-6.1c-2.2-2.9-5.7-2.5-8.6-1.9c-1.9-6.3-8.9-5.9-10.9-0.5
			c-4.3-7.9-13.5-11.6-20.8-7.7c-7.4,4-10.7,15.1-7.7,23.9c-6.4,1.8-8.3,11.6-2.9,16.6c2.8,8.8,11,13.6,18.8,12.6
			c4.3-0.6,8.7-2.6,11.9-5.9c2.2-2.3,3.9-5.6,3.5-9c7.6,4.3,18.1,3.6,23.4-4.1C1252.3,882.8,1248.9,872.7,1242.2,871.1L1242.2,871.1
			z"/>
		<path id="XMLID_489_" class="st16" d="M1244.6,898.5c-3.2,0.3-6.4,0.7-9.6,1c-1.6,0.1-3.2,0.3-4.8,0.5c-0.8,0.1-2.2,0.5-2.8-0.5
			c-0.3-0.5-0.2-1.8-0.2-2.5c-0.1-1.3-0.2-2.5-0.3-3.8c-0.2-2.2-0.3-4.5-0.5-6.6c-0.1-1.5-0.2-3.1-0.3-4.6c-1.7-0.1-3.5,0.6-4.6,2.5
			c0.1,2.2,0.3,4.3,0.5,6.5l0.6,8.1c0.1,2.2,0.2,4.6,1.5,6.3c2.2,3.1,6.1,1.8,8.9,1.6c3.9-0.4,7.8-0.8,11.6-1.2
			C1247.4,905.4,1247.9,898.2,1244.6,898.5L1244.6,898.5z"/>
		<path id="XMLID_488_" class="st17" d="M1275.3,866.3c-0.3-4.3-0.9-8.5-1.4-12.8c-0.1-0.8-0.5-1.5-1-1.8c-1.6,1-3.3,1.9-5.1,2.7
			c-0.2,0.8-0.2,1.6-0.1,2.4c0.3,2.9,0.7,5.7,1,8.6c0.1,0.7,0.3,1.5,0.3,2.1c-0.5,0.1-1.4,0.2-1.5,0.3c-3.5,0.3-7,0.5-10.5,0.7
			c0-5.2,0.1-26.6,0.2-31.8c-4-0.5-16.1-1.7-20.2-2.3c-0.3,1-1.1,97.7,0.4,137c0.4,11.2,0.8,22.4,1.6,33.5c0,0,16.5-0.8,20.7-1.2
			v-1.2c-0.7-19.7-1.8-39.3-2.4-58.9c-0.5-19.7-0.7-39.3-0.6-59v-8.1c2.1-0.1,4.2-0.2,6.3-0.4c2.9-0.2,6.1,0,8.6-1.6
			C1274.5,872.8,1275.6,869.7,1275.3,866.3z"/>
		<path id="XMLID_487_" class="st6" d="M1310,891.1c-0.4-4.7-5.3-6-9.2-6.5c0.5-5.1,0-11-4.6-14.3c-4.1-2.9-8.1-1.3-11.4,1.7
			c-3.7-3.9-9.9-3.5-14-0.3c-2.3,1.8-4,4.2-5.2,6.8c-1,2.2-2.4,3-4.6,3.7c-1.6,0.6-3.1,1.3-4.5,2.2c-2,1.3-4.8,3.1-4.8,5.8
			s1.9,6.1,3.3,8.3s3.2,4.2,5.7,5c1.9,0.7,3.8,0.7,4.6,3c0.4,1.3,0.7,2.6,1.5,3.8c3.5,5.6,11.4,5.4,15.1,0.1
			c0.1-0.1,0.1-0.2,0.1-0.3c0.2-0.1,0.4-0.3,0.6-0.5c0.3-0.3,0.6-0.7,0.9-1c4.3,1.2,9.2,1.7,13.3,0.3c3.4-1.2,6.3-4.7,5-8.3
			C1305.9,898.9,1310.4,896.1,1310,891.1z"/>
		<path id="XMLID_486_" class="st18" d="M1279,888.8c-0.4,0.6-0.7,1.3-0.7,2.1c-0.4,12.2-0.2,15.8-0.3,28.1v5.8
			c-2.7,0.2-5.5,1.3-8.2,1.7c-5.9,1-7.3,1.1-13.3,0.9c-3.9-0.1-6,8.2-1.7,8.3c6.6,0.2,8.8,0,15.3-1.1c3.2-0.5,6.5-1.1,9.6-2.1
			c3.4-1.2,4.8-3.8,4.8-7.3c0.2-13.8,0.4-19.9,0.1-33.7C1282.7,890.5,1280.9,889.5,1279,888.8L1279,888.8z"/>
	</g>
</g>
</svg>
